<?xml version="1.0" encoding="utf-8"?>
<!-- Generator: Adobe Illustrator 19.0.0, SVG Export Plug-In . SVG Version: 6.00 Build 0)  -->
<!DOCTYPE svg PUBLIC "-//W3C//DTD SVG 1.1//EN" "http://www.w3.org/Graphics/SVG/1.1/DTD/svg11.dtd">
<svg version="1.1" id="Capa_1" xmlns="http://www.w3.org/2000/svg" xmlns:xlink="http://www.w3.org/1999/xlink" x="0px" y="0px" width="512px" height="512px" viewBox="0 0 511.998 511.998" style="enable-background:new 0 0 511.998 511.998;" xml:space="preserve">
<g>
	<g>
		<polygon fill="#cecece" points=" 143.67,292.982 133.07199999999997,294.797 106.98299999999998,306.778 98.71299999999998,304.55400000000003 94.01599999999998,309.32800000000003 59.476999999999975,330.08500000000004 62.44299999999998,340.42 66.12099999999998,341.373 72.77799999999998,337.454 97.81699999999998,324.053 103.97799999999998,327.226 106.48699999999998,326.798 111.36999999999998,321.376 145.48399999999998,303.58 143.67,292.982"></polygon>
	</g>
</g>
<g>
	<g>
		<polygon fill="#cecece" points=" 217.731,368.445 207.13299999999998,366.63 189.337,400.74399999999997 183.915,405.62699999999995 183.487,408.13599999999997 186.66,414.29699999999997 173.259,439.33599999999996 169.33999999999997,445.99299999999994 170.29299999999998,449.67099999999994 180.628,452.63699999999994 201.385,418.09799999999996 206.159,413.40099999999995 203.935,405.131 215.916,379.042 217.731,368.445"></polygon>
	</g>
</g>
<g>
	<g>
		<polygon fill="#cecece" points=" 130.428,420.88 91.175,381.627 80.422,381.627 80.422,392.38 119.674,431.633 125.051,433.859 130.428,431.633 130.428,420.88"></polygon>
	</g>
</g>
<g>
	<g>
		<polygon fill="#cecece" points=" 176.475,374.833 137.22,335.58 131.843,333.354 126.466,335.58099999999996 106.83999999999999,355.20799999999997 106.83999999999999,365.96 146.093,405.21299999999997 151.47,407.43999999999994 156.847,405.21399999999994 176.47400000000002,385.58699999999993 178.70000000000002,380.2099999999999 176.475,374.833"></polygon>
	</g>
</g>
<g>
	<g>
		<polygon fill="#cecece" points=" 509.598,67.945 500.576,58.922999999999995 500.87300000000005,58.004 498.516,46.415 488.37100000000004,31.692999999999998 480.36100000000005,23.683 465.636,13.535 454.047,11.178 453.12800000000004,11.475000000000001 443.879,2.226000000000001 432.96200000000005,2.394000000000001 433.34800000000007,13.202000000000002 443.2780000000001,23.132 437.3950000000001,30.746000000000002 426.3750000000001,19.726000000000003 415.6220000000001,19.726000000000003 415.6220000000001,30.479000000000003 426.6160000000001,41.473 419.2380000000001,47.594 409.0980000000001,37.453 398.28700000000015,37.065000000000005 398.11900000000014,47.979000000000006 408.80600000000015,58.666000000000004 408.3410000000002,60.38100000000001 406.9440000000002,67.32100000000001 406.0030000000002,69.19200000000001 348.7270000000002,123.811 348.4720000000002,134.56 359.2220000000002,134.815 391.00700000000023,104.505 407.5320000000002,121.03099999999999 244.179,292.392 219.675,267.889 334.202,158.67700000000002 334.457,147.92800000000003 323.707,147.67300000000003 265.148,203.51500000000004 259.999,197.20000000000005 172.81600000000003,192.88200000000003 159.53200000000004,221.56500000000003 111.66400000000004,261.005 28.866000000000042,292.348 44.64,467.397 146.60899999999998,511.998 219.70099999999996,483.19 222.47099999999998,480.301 221.54599999999996,469.12 211.31399999999996,469.967 208.94699999999997,472.437 55.39499999999998,456.64300000000003 39.62,303.101 110.095,276.202 111.484,276.21 112.253,276.215 174.472,224.39499999999998 183.566,203.63799999999998 249.243,207.95 254.041,214.106 203.546,262.258 201.191,267.66999999999996 203.416,273.13699999999994 238.93099999999998,308.65199999999993 244.308,310.87799999999993 244.399,310.87699999999995 249.812,308.52099999999996 251.246,307.01699999999994 279.50100000000003,315.95199999999994 310.68100000000004,304.7939999999999 310.95700000000005,304.6789999999999 311.27400000000006,304.8049999999999 311.25800000000004,304.9439999999999 310.773,306.7259999999999 301.53400000000005,321.6129999999999 283.87200000000007,330.0649999999999 235.63900000000007,395.1769999999999 228.45200000000006,442.2289999999999 232.20600000000005,451.8949999999999 232.20900000000003,451.8959999999999 242.60200000000003,447.7949999999999 250.82100000000003,394.3169999999999 287.35900000000004,344.8649999999999 312.28700000000003,332.3659999999999 325.165,311.6349999999999 325.83000000000004,309.4079999999999 318.87700000000007,291.6539999999999 301.02600000000007,293.0459999999999 279.50200000000007,300.74599999999987 261.90900000000005,295.8319999999999 442.846,106.03 444.71500000000003,105.094 451.651,103.70599999999999 453.377,103.24 464.068,113.92999999999999 469.44399999999996,116.15599999999999 474.68399999999997,114.062 474.59099999999995,102.947 464.45199999999994,92.809 470.57399999999996,85.431 481.56699999999995,96.428 486.94399999999996,98.654 492.32099999999997,96.428 492.32099999999997,85.675 481.301,74.655 488.91499999999996,68.771 499.06999999999994,78.926 504.44699999999995,81.152 509.68899999999996,79.057 509.598,67.945"></polygon>
	</g>
</g>
<g>
</g>
<g>
</g>
<g>
</g>
<g>
</g>
<g>
</g>
<g>
</g>
<g>
</g>
<g>
</g>
<g>
</g>
<g>
</g>
<g>
</g>
<g>
</g>
<g>
</g>
<g>
</g>
<g>
</g>
</svg>